<?xml version='1.0' encoding='utf-8'?>
<svg xmlns="http://www.w3.org/2000/svg" id="Layer_1" version="1.1" viewBox="0 0 1254 1254" xmlns="http://www.w3.org/2000/svg" xmlns:xlink="http://www.w3.org/1999/xlink"><defs>
    <style>
      .st0 {
        fill: none;
      }

      .st1 {
        fill: #cb951e;
      }

      .st2 {
        fill: #021f45;
      }

      .st3 {
        fill: #068d96;
      }
    </style>
  </defs>
  <g>
    <g id="rrxibL">
      <g>
        <path class="st3" d="M541.46,911.73c-13.97,1.38-33.48,2.58-36.4-15.41-1.26-7.77.26-14.83,3.34-22.17,2.63.64,5.6,1.7,7.07,2.74-1.41,5.57-2.71,10.07-2.65,14.93.07,6.06,4.25,11.18,10.3,11.8s28.14,2.63,25.1-9.36l-14.54-5.79,2.81-7.99c5.16,1.23,9.65,4.17,14.78,4.18l52.07.04c9.14,0,1.82-14.16,8.15-22.34s19.3-7.75,25.73-.33c7.67,8.84-1.08,22.66,9.04,22.66h35.45s.2-23.86.2-23.86l8.15-.03-.21,31.71h-45.72c-2.55,0-5.86-2.6-7.81-4.23-6.63,5.68-16.42,6.13-22.93.34-2.54,2.2-5.64,3.93-9.04,3.93l-47.79.04c1.8,9.86-5.04,18.15-15.1,19.14ZM632.78,873.89c.03-6.65-3.63-9.61-8.95-9.48s-7.7,4.17-7.54,9.91c.11,3.82.32,8.04,3.98,9.64,2.55,1.11,6.69,1.01,9.05-.36,2.95-1.71,3.44-5.91,3.46-9.71Z" />
        <path class="st3" d="M744.83,843c2.4-.59,5.3-.7,8.13-.55v37.03c0,1.53,2.04,5.21,3.92,5.21h66.27s0-8.42,0-8.42c0-4.51-3.37-7.86-7.96-7.94l-18.66-.34c-.61-2.45-1.21-7.47-.15-9.48l20.16-20.53,5.45,5.72-16.01,16.33,11.72.71c7.94.48,13.62,6.4,13.54,14.5l-.19,17.32-74.72-.04c-6.25,0-11.27-5.14-11.3-11.19l-.18-38.33Z" />
        <path class="st3" d="M850.94,521.75c10.62,13.8,16.1,40.74,2.11,45.31-4.07,1.33-9.27.94-13.39.02l-13.56-56.18c9.36-1.24,18.82,3.02,24.84,10.86Z" />
        <polygon class="st3" points="1083.95 884.96 880.57 884.96 880.62 879.61 1083.91 879.61 1083.95 884.96" />
        <path class="st3" d="M476.15,884.96h-169.18s.03-5.33.03-5.33h169.05c.5,1.44.53,2.93.1,5.33Z" />
        <path class="st3" d="M879.6,689.98c1.23,1.26,1.7,4.18,1.39,6.41l-68.36.03.07-13.94,59.47-.1,7.43,7.6Z" />
        <path class="st3" d="M807.15,658.5l-64.66.27c-.45-4.33-.47-8.51-.22-13.12l56.58-.08c3.26,3.8,5.85,5.45,8.29,12.93Z" />
        <path class="st3" d="M737.55,627.63l-57.99.07.02-11.75,52.62-.09c3.08,3.14,4.96,5.74,5.34,11.77Z" />
        <path class="st3" d="M672.77,586.56l-57.99.07.02-11.75,52.62-.09c3.08,3.14,4.96,5.74,5.34,11.77Z" />
        <path class="st3" d="M595.58,557.15l-57.99.07.02-11.75,52.62-.09c3.08,3.14,4.96,5.74,5.34,11.77Z" />
        <path class="st3" d="M513.8,531.42l-57.99.07.02-11.75,52.62-.09c3.08,3.14,4.96,5.74,5.34,11.77Z" />
        <path class="st3" d="M701.42,892.61l.19-7.85,22.95-.14c.41-4.84.64-10.04-1.37-14.37-3.01-6.48-13.89-3.66-13.94-4.85l-.13-3.18c-.04-.89.19-3.79,1.07-3.91s2.73-.28,3.94-.35c10.79-.64,18.71,6.65,18.62,17.3l-.15,17.23-31.17.12Z" />
        <polygon class="st3" points="850.65 892.17 842.62 892.3 842.59 843.95 850.59 843.62 850.65 892.17" />
        <path class="st3" d="M849,835.72l3.98.17c.69.03.49,3.41-.22,3.41l-13.59-.02c.31-1.64,1.53-3.44,2.26-4.36.3-2.24.58-5.29,1.42-6.91,1.11-2.14,6.26-2.39,8.05-1.46.65.34,1.66,2.66,1.24,3.18-1.91,2.38-4.57-1.15-6.49,1.41-.48.64-.33,2.5.15,3.14s2.31,1.4,3.19,1.43Z" />
        <path class="st3" d="M672.15,901.83c2.88-1.34,5.88.04,6.82,2.31.85,2.05-.1,5.31-2.57,6.5-1.72.83-4.8.08-6.14-1.84-1.18-1.7-.76-5.75,1.89-6.98Z" />
        <path class="st3" d="M684.16,901.68c2.86-1.18,5.68.36,6.57,2.76.68,1.82-.45,5.39-2.44,6.24s-5.31-.15-6.14-1.65c-1.22-2.24-.82-6.18,2.01-7.35Z" />
        <path class="st3" d="M523.27,919.86c2.76-.98,5.77,1.23,6.1,3.04.46,2.58-.79,5.63-2.76,6.25-2.49.79-5.45-.51-6.2-2.49-.89-2.33-.21-5.71,2.87-6.8Z" />
        <path class="st3" d="M535.73,919.63c2.27-.5,5.38,1.66,5.57,3.49.26,2.53-1.07,5.52-2.84,6.02-2.64.74-5.75-.61-6.31-2.49-.91-3.05.19-6.26,3.58-7.01Z" />
      </g>
    </g>
    <g>
      <g>
        <circle class="st1" cx="305.29" cy="433.49" r="8.14" />
        <path class="st1" d="M311.85,469.48h-13.12c-1.1,0-1.93-.99-1.73-2.07l4.76-26.52c.26-1.42,1.49-2.45,2.93-2.45h0c1.39,0,2.6.97,2.91,2.33l5.97,26.57c.25,1.1-.59,2.15-1.72,2.15Z" />
      </g>
      <rect class="st1" x="304.25" y="371.61" width="2.07" height="55.5" />
    </g>
    <path class="st2" d="M1119.09,664.93c13.49,46.18-.19,98.17-34.82,131.51l-45.96.16c-35.7-1.89-68.54-14.98-88.19-46.72-15.94,22.47-39.97,36.61-67.37,36.77l-69.5.41c-19.82.12-37.1-10.2-45.51-28.21-3.82-8.18-5.71-16.69-7.61-25.62-2.51-11.75-11.49-21.62-23.98-21.79l-35.78-.49c-5.21-.07-6.64-6.24-6.55-10.55.81-12.96-8.43-23.38-21.41-22.13v94.27s-72.05-.21-72.05-.21c-12.61-.04-23.6-5.19-32.7-13.41-8.34,7.37-17.44,12-27.99,13.66-19.28,3.03-43.53,1.75-58.8-13.64-10.71,9.98-24.07,14.15-38.58,14.32-17.06.2-33.17-1.91-48.32-9.68-26.34-13.5-42.87-39.32-42.88-69.49l-.14-252.85-22.66-13.82.29-38.05,61.1,24.57,60.82-24.55.21,36.15-28.7,16.95.03,239.58c0,13.03,10.86,21.95,23,20.04,6.53-1.03,10.51-6.31,10.63-12.98l.08-153.84,57.16.05-.06,153.74c-.02,7.3,4.12,12.64,10.93,13.14,6.15.46,11.51-3.81,13.07-10.74l.13-130.34,55.1-.08-.03,130.02c1.03,6.37,4.87,10.69,10.8,10.72,5.31.02,11.15-4.38,11.15-10.87l.07-97.97,58.08-.05.48,40.36h63.67s.13,31.74.13,31.74l70.15-.02.12,37.88,74.47.14.11,17.76c19.51,3.15,38.14-8.65,43.19-28.42l5.49-21.49c11.88-46.53,47.58-80.32,97.24-78.24,43.07,1.8,79.69,30.49,91.89,72.26ZM1050.97,739.14c11.96-16.52,15.55-37.42,9.24-56.72-4.74-14.49-16.41-25.28-31.06-28.79-14.38-3.45-28.53,1.7-37.22,13.3-4.67,6.23-7.39,13.36-9.01,21.02-7.43,35.14,40.28,52.22,68.05,51.19Z" style="fill: rgb(255, 255, 255);" />
    <path class="st2" d="M129.79,820.72c29.47-.11,54.34-1.05,78.62-17.25,26.3-17.54,37.62-44.77,38.39-75.97v-180.83s67.53-41.59,67.53-41.59l.1,229.02c.18,60.3-27.85,113.12-82.43,139.7-33.52,16.03-65.79,16.36-102.18,15.92l-.03-69Z" style="fill: rgb(255, 255, 255);" />
    <polygon class="st2" points="389.94 406.56 286.49 364.37 389.5 324.62 492.85 364.34 389.94 406.56" style="fill: rgb(255, 255, 255);" />
    <path class="st2" d="M790.99,628.79c-.05,4.26-4.66,6.99-7.37,7.27-3.83.39-8.68-2.18-8.7-6.75l-.13-41.15c-.01-3.82,2.55-7.28,5.78-8.71l23.8-10.49-2.34-11.98-25.81,9.38c-3.37,1.22-7.1-.14-8.76-2.85s-1.04-8.01,2.51-9.5l27.62-11.59,1.77-22.98c.48-6.31,4.98-11.11,10.89-11.71,5.46-.55,11.89,3.08,13.28,9.37l10.82,49.12c.97,4.42-1.24,9.55-1.15,14.05.25,13.18,1.32,26.36,5.17,38.93l10.82,35.26c1.31,4.28-.8,8.38-4.26,10.22-2.85,1.52-8.85,1.46-10.34-2.81l-14.89-42.77-7.78-31.91-20.53,7.23-.41,34.37Z" style="fill: rgb(255, 255, 255);" />
    <path class="st2" d="M800.21,467.75c10.03-2.69,19.25,3.4,21.65,12.28,2.56,9.48-3.18,19.16-12.56,21.8-9.04,2.54-18.39-2.68-21.29-11.77s1.99-19.57,12.2-22.31Z" style="fill: rgb(255, 255, 255);" />
  </g>
</svg>